{"accessors":[{"min":[-1,-1,-1],"type":"VEC3","max":[1,1,1],"count":1225,"bufferView":0,"componentType":5126},{"type":"VEC3","bufferView":1,"count":1225,"componentType":5126},{"type":"SCALAR","bufferView":2,"count":6912,"componentType":5125}],"buffers":[{"uri":"data:application/octet-stream;base64,","byteLength":57048}],"scenes":[{"nodes":[0]}],"bufferViews":[{"byteLength":14700,"byteOffset":0,"buffer":0},{"byteLength":14700,"byteOffset":14700,"buffer":0},{"byteLength":27648,"byteOffset":29400,"buffer":0}],"asset":{"version":"2.0"},"meshes":[{"primitives":[{"material":0,"attributes":{"NORMAL":1,"POSITION":0},"indices":2}]}],"scene":0,"nodes":[{"mesh":0}],"materials":[{"pbrMetallicRoughness":{"roughnessFactor":0.4,"metallicFactor":0}}]}